<svg width="40" height="40" viewBox="0 0 40 40" fill="none" xmlns="http://www.w3.org/2000/svg">
<path d="M20 0C31.0462 0 40 8.95375 40 20C40 31.0462 31.0462 40 20 40C8.95375 40 0 31.0462 0 20C0 8.95375 8.95375 0 20 0ZM30.8825 24.3962H12.925C12.7309 24.396 12.5445 24.4724 12.4062 24.6087L8.85875 28.1275C8.80725 28.1784 8.7721 28.2435 8.75781 28.3144C8.74351 28.3854 8.75072 28.459 8.77851 28.5259C8.8063 28.5927 8.8534 28.6498 8.91379 28.6897C8.97418 28.7296 9.04511 28.7506 9.1175 28.75H27.075C27.2691 28.7502 27.4555 28.6739 27.5938 28.5375L31.1413 25.0175C31.1923 24.9666 31.2271 24.9016 31.2411 24.8308C31.2552 24.7601 31.2479 24.6867 31.2201 24.6201C31.1924 24.5535 31.1455 24.4967 31.0854 24.4568C31.0252 24.417 30.9546 24.3959 30.8825 24.3962ZM27.075 17.7812H9.1175L9.0325 17.79C8.9691 17.8046 8.91076 17.8359 8.86357 17.8806C8.81637 17.9254 8.78205 17.982 8.76418 18.0446C8.74631 18.1071 8.74554 18.1733 8.76195 18.2363C8.77837 18.2992 8.81136 18.3566 8.8575 18.4025L12.4075 21.9225L12.495 21.9975C12.62 22.085 12.77 22.135 12.925 22.135H30.8825L30.9675 22.1263C31.0309 22.1117 31.0892 22.0804 31.1364 22.0356C31.1836 21.9908 31.2179 21.9342 31.2358 21.8717C31.2537 21.8091 31.2545 21.7429 31.238 21.68C31.2216 21.617 31.1886 21.5596 31.1425 21.5138L27.5925 17.9938L27.505 17.9188C27.3796 17.8291 27.2292 17.781 27.075 17.7812ZM30.8825 11.25H12.925C12.7309 11.2498 12.5445 11.3261 12.4062 11.4625L8.85875 14.9825C8.80768 15.0334 8.77292 15.0984 8.75888 15.1692C8.74483 15.2399 8.75214 15.3133 8.77988 15.3799C8.80761 15.4465 8.85452 15.5033 8.91463 15.5432C8.97475 15.583 9.04537 15.6041 9.1175 15.6038H27.075C27.2691 15.604 27.4555 15.5276 27.5938 15.3912L31.1413 11.8725C31.1928 11.8216 31.2279 11.7565 31.2422 11.6856C31.2565 11.6146 31.2493 11.541 31.2215 11.4741C31.1937 11.4073 31.1466 11.3502 31.0862 11.3103C31.0258 11.2704 30.9549 11.2494 30.8825 11.25Z" fill="#0A0909"/>
</svg>
