<?xml version="1.0" encoding="UTF-8"?><svg id="Layer_2" xmlns="http://www.w3.org/2000/svg" xmlns:xlink="http://www.w3.org/1999/xlink" viewBox="0 0 134.2 134.27"><defs><style>.cls-1{fill:url(#linear-gradient);}</style><linearGradient id="linear-gradient" x1="12.33" y1="117.06" x2="124.63" y2="15.17" gradientUnits="userSpaceOnUse"><stop offset=".04" stop-color="#01501f"/><stop offset=".5" stop-color="#13bf00"/><stop offset=".65" stop-color="#51d400"/><stop offset=".85" stop-color="#8fff15"/><stop offset="1" stop-color="#e6ff55"/></linearGradient></defs><g id="Layer_2-2"><path id="Logo_2" class="cls-1" d="m134.2,66.61c.03,5.19-.38,9.76-1.43,14.26-.51,2.17-.88,4.38-1.56,6.5-1.84,5.7-4.44,11.04-7.62,16.14-2.47,3.96-5.34,7.54-8.69,10.75-2.19,2.09-4.33,4.29-6.79,6.02-3.43,2.42-7.08,4.54-10.74,6.62-3.31,1.88-6.87,3.27-10.54,4.27-3.63.99-7.3,1.94-11.02,2.48-4.8.69-9.67.82-14.52.32-1.71-.18-3.44-.23-5.14-.51-1.79-.3-3.55-.81-5.33-1.23-1.6-.38-3.22-.71-4.8-1.17-1.29-.37-2.55-.85-3.78-1.36-1.36-.56-2.69-1.21-4.02-1.84-3.82-1.79-7.49-3.82-10.79-6.51-1.68-1.37-3.59-2.46-5.21-3.89-1.73-1.53-3.32-3.23-4.82-4.99-2.04-2.4-4.05-4.85-5.87-7.42-3.41-4.8-6.01-10.06-7.94-15.61-1.04-2.99-1.88-6.07-2.54-9.16C-.23,74.23-.12,68.06.24,61.92c.18-3.05.66-6.13,1.37-9.1,1.08-4.51,2.64-8.89,4.5-13.16,3.9-8.98,11.02-17.48,16.89-22.68,3.9-3.46,8.08-6.55,12.7-8.97,7.18-3.77,14.74-6.45,22.84-7.46,5.72-.71,11.46-.72,17.15.05,5.33.72,10.55,2.06,15.54,4.11,5.7,2.35,11.07,5.35,15.96,9.1,5.46,4.2,10.41,8.95,14.22,14.75,1.84,2.8,3.62,5.64,5.26,8.55,2.83,5.03,4.69,10.44,5.89,16.07.99,4.62,1.69,9.28,1.65,13.44Zm-69.44-5.15c-.1.22-.17.46-.31.65-1.94,2.62-3.1,5.59-3.82,8.72-.39,1.73-.54,3.54-.62,5.32-.11,2.4-.24,4.82,0,7.2.22,2.13.91,4.22,1.46,6.31.17.65.57,1.25.86,1.87.1-.04.19-.08.29-.12-.15-2.64.14-5.22.97-7.75.82-2.49,2.03-4.7,4.01-6.43-.06.49-.33.87-.46,1.29-.5,1.67-1.05,3.34-1.39,5.05-.57,2.86-.94,5.76-1.47,8.62-.41,2.19-.95,4.35-1.42,6.53-.19.91-.34,1.83-.51,2.75.12.03.24.07.36.1,4.01-7.71,9.65-14.04,16.31-19.5-3.96,4.14-6.85,9.03-9.78,13.91-1.9,3.16-3.93,6.25-5.96,9.33-1.82,2.76-3.83,5.36-6.41,7.5-2,1.66-4.12,3.07-6.63,3.85-.84.26-1.66.62-2.48.93.39.26.8.42,1.14.34,1.87-.47,3.86-.73,5.55-1.58,4.23-2.13,8.33-4.52,12.45-6.86,2.7-1.53,5.34-3.17,8.03-4.71.48-.27,1.09-.31,1.64-.46.04.1.08.2.12.3-3.05,1.18-5.38,3.38-7.72,5.51-2.91,2.64-5.9,5.11-9.37,7.02-3.19,1.76-6.64,2.45-10.16,2.72-3.27.25-6.56.03-9.69-1.23-1.2-.48-2.55-.65-3.7-1.21-3.87-1.88-7.65-3.92-10.88-6.89.07.39.2.74.44.98,1.41,1.34,2.79,2.71,4.27,3.97,4.57,3.91,9.96,6.22,15.73,7.63,2.55.62,5.2,1.04,7.82,1.1,5.59.11,11.19-.05,16.79-.17,3.4-.07,6.79-.26,10.18-.44.97-.05,1.94-.29,2.91-.44-.01-.12-.03-.23-.04-.35-.13-.02-.25-.06-.38-.06-3.96.05-7.85-.5-11.66-1.57-1.38-.39-2.69-1.02-4.08-1.33-1.3-.29-2.67-.29-4.01-.41,2.03-.21,4.05-.17,6.07-.21,5.03-.12,10.09-.01,15.09-.51,3.95-.39,7.89-1.3,11.54-3.02,2.43-1.14,4.84-2.33,7.13-3.72,1.94-1.18,3.73-2.61,5.49-4.06,1.22-1,2.26-2.21,3.38-3.32-.06-.08-.12-.17-.18-.25-.22.06-.47.08-.66.19-3.84,2.27-7.99,3.53-12.45,3.67-3.15.1-6.3.1-9.45.13-.26,0-.53-.06-.89-.1,3.31-1.54,6.54-2.92,9.66-4.52,3.22-1.66,6.04-3.89,8.61-6.47,2.59-2.59,4.78-5.48,6.65-8.62,1.82-3.06,3.16-6.33,4.3-9.69,1.14-3.35,1.56-6.8,1.65-10.31-.45.49-.73,1.02-1.04,1.53-1.09,1.89-2.07,3.85-3.31,5.63-1.91,2.73-4.31,5.02-6.95,7.06-2.46,1.9-5.06,3.51-8,4.56-2.54.9-5.07,1.86-7.62,2.74-1.67.57-3.42.94-5.04,1.61-2.95,1.22-5.82,2.59-8.74,3.89-.14.06-.33.03-.73.05.27-.3.36-.46.49-.54,2.45-1.38,4.9-2.75,7.34-4.14,1.81-1.03,3.77-1.89,5.36-3.2,2.39-1.96,4.59-4.17,6.72-6.41,3.07-3.23,5.4-7,7.54-10.88.84-1.52,1.42-3.18,2.09-4.79.93-2.24,2.12-4.42,2.7-6.75.82-3.28,1.37-6.65,1.69-10.01.47-4.99.08-9.98-1-14.89-.37-1.7-.82-3.38-1.3-5.06-.23-.82-.61-1.6-.92-2.41-.11.02-.22.04-.32.06-.02.33-.07.67-.07,1,0,1.61.07,3.22,0,4.83-.11,2.52-.63,4.96-1.39,7.38-1.54,4.86-4.23,9.01-7.58,12.76-2.69,3.02-5.87,5.5-9.16,7.85-2.11,1.5-4.35,2.87-6.26,4.59-2.02,1.83-3.72,4.01-5.57,6.02-.13.15-.37.2-.56.29-.07-.09-.14-.18-.2-.27.85-1.3,1.66-2.63,2.57-3.89,1.49-2.07,3.05-4.1,4.57-6.15,2.15-2.92,4.37-5.8,6.41-8.8,1.23-1.81,2.18-3.82,3.22-5.75.1-.18.02-.46.03-.69-.23.09-.54.12-.68.29-1.16,1.4-2.3,2.83-3.42,4.26-2.39,3.04-5.18,5.69-8.24,8.04-2.4,1.84-4.82,3.64-7.25,5.44-.32.24-.73.36-1.1.53-.04-.08-.09-.16-.13-.24.67-.6,1.35-1.18,2-1.79,2.99-2.79,5.44-6.02,7.8-9.35,2.32-3.26,4.13-6.8,5.69-10.45,1.2-2.82,2.07-5.78,3.01-8.71,1.17-3.62,1.46-7.4,1.77-11.16.33-3.95-.02-7.87-.83-11.74-.15-.71.5-1.92-.91-2.2-.06.06-.17.11-.21.2-.07.16-.14.33-.15.5-.37,4.46-2.14,8.43-4.33,12.24-1.99,3.48-4.38,6.66-7.25,9.46-1.46,1.42-2.82,2.96-4.38,4.26-3.79,3.15-7.81,6.04-11.14,9.71-1.24,1.37-2.28,2.91-3.35,4.42-.95,1.35-1.82,2.76-2.72,4.14-.09-.04-.18-.08-.27-.12.52-1.22,1.1-2.42,1.54-3.68.49-1.4,1.16-2.83,1.2-4.26.05-2.1-.43-4.21-.6-6.33-.19-2.31-.34-4.64-.37-6.96-.02-1.17.27-2.35.42-3.52.49-3.81,2.01-7.25,4.13-10.38,2.29-3.38,5.19-6.2,8.72-8.31.75-.45,1.47-.95,2.2-1.43-.42-.19-.78-.21-1.08-.09-2.41.98-4.93,1.78-7.2,3.05-2.93,1.64-5.75,3.52-8.44,5.52-3.96,2.95-7.18,6.63-9.77,10.84-2.72,4.41-4.31,9.22-4.85,14.38-.68,6.4-.24,12.62,2.62,18.51.07.14,0,.34,0,.51-.74-.73-1.22-1.63-1.83-2.42-1.8-2.33-3.19-4.9-4.1-7.67-.96-2.92-2.03-5.89-2.37-8.91-.57-5.11-.52-10.27,1.02-15.3,1.1-3.57,2.32-7.06,4.55-10.12.19-.26.17-.67.25-1.02-.36.12-.85.14-1.07.39-1.98,2.27-3.95,4.55-5.85,6.89-2.57,3.18-4.3,6.88-5.76,10.63-1.13,2.88-1.68,6.02-2.23,9.09-.74,4.17-.75,8.4-.06,12.59.38,2.32.84,4.62,1.39,6.91.72,3,2.19,5.69,3.77,8.33.14.23.11.56.16.83-.16.03-.26.08-.29.06-.68-.47-1.35-.94-2.01-1.43-5.14-3.79-8.92-8.66-11.5-14.48-1.54-3.48-2.48-7.13-3.11-10.87-.04-.25-.31-.46-.47-.69-.12.23-.36.47-.35.7.04,3.09-.12,6.21.22,9.28.38,3.41,1.16,6.78,1.89,10.14,1.03,4.78,2.96,9.24,5.42,13.42,2.47,4.21,5.38,8.13,9.02,11.47,2.59,2.38,5.32,4.53,8.33,6.33.94.56,1.91,1.08,2.87,1.62-.05.13-.1.26-.15.39-.55-.15-1.09-.37-1.65-.43-2.72-.28-5.44-.58-8.17-.76-3.2-.21-6.22-.95-9.03-2.51-.87-.49-1.82-.85-2.73-1.27l-.25.37c3.18,3.47,6.87,6.3,10.93,8.73,4.07,2.44,8.43,4.18,13.24,5.49-4.66,1.11-8.99,2.2-13.55,1.93.77.48,1.53.86,2.33,1.11,1.42.45,2.84.91,4.29,1.19,2.16.42,4.35.79,6.54.95,1.18.09,2.4-.31,3.9-.53-1.48,1.29-2.78,2.43-4.08,3.57.51.04,1,0,1.42-.21,3.09-1.45,5.14-3.99,6.95-6.76.22-.33.29-.81.29-1.22,0-2.5-.83-4.8-1.68-7.11-1.38-3.77-3.29-7.19-6.21-10-.15-.14-.2-.38-.3-.57,4.18,3.28,6.7,7.73,9.07,12.35-.32-4.65-1.48-9.11-2.65-13.54-1.17-4.44-2.76-8.76-4.16-13.14,2.5,3.07,3.79,6.78,5.06,10.46,1.28,3.69,2.3,7.46,3.43,11.2.06-1.24-.1-2.46-.11-3.68-.03-4.39-.06-8.78.01-13.16.02-1.38.25-2.77.55-4.12.57-2.55,1.46-4.97,2.58-7.37,1.21-2.59,2.67-4.95,4.54-7.12Zm29.31-15.77s.05.05.08.08c.02-.05.06-.1.07-.15,0-.02-.04-.05-.07-.07-.03.05-.05.1-.08.14ZM22.48,92.65s-.05-.05-.08-.08c-.02.05-.06.1-.07.15,0,.02.04.05.07.07.03-.05.05-.1.08-.14Z"/></g></svg>