<?xml version="1.0" encoding="utf-8"?>
<!-- Generator: Adobe Illustrator 27.4.1, SVG Export Plug-In . SVG Version: 6.00 Build 0)  -->
<svg version="1.1" id="Layer_2_00000127732431720956293420000015887703846878115222_"
	 xmlns="http://www.w3.org/2000/svg" xmlns:xlink="http://www.w3.org/1999/xlink" x="0px" y="0px" viewBox="0 0 386.1 386.1"
	 style="enable-background:new 0 0 386.1 386.1;" xml:space="preserve">
<style type="text/css">
	.st0{display:none;fill:#080A08;}
	.st1{fill:url(#Layer_1-2_00000176736919815462386060000005450347847131489690_);}
</style>
<circle class="st0" cx="193.1" cy="193.1" r="186"/>
<linearGradient id="Layer_1-2_00000031920748601628005590000017956965283552528804_" gradientUnits="userSpaceOnUse" x1="54.9614" y1="357.6614" x2="327.0951" y2="33.345">
	<stop  offset="3.880765e-02" style="stop-color:#01501F"/>
	<stop  offset="0.4977" style="stop-color:#13BF00"/>
	<stop  offset="0.6471" style="stop-color:#51D400"/>
	<stop  offset="0.8505" style="stop-color:#8FFF15"/>
	<stop  offset="1" style="stop-color:#E6FF55"/>
</linearGradient>
<path id="Layer_1-2" style="fill:url(#Layer_1-2_00000031920748601628005590000017956965283552528804_);" d="M96.2,88
	c-2.5,5.2-5.6,10.2-7.3,15.7c-4,13.1-4.7,26.6-3.3,40.3c1.3,13.6,4.9,26.6,9.9,39.2c0.7,1.9,1.8,3.6,2.8,5.3
	c0.2,0.3,0.7,0.5,1.1,0.7c0.1-0.4,0.4-0.9,0.3-1.3c-0.5-1.7-1.1-3.4-1.7-5c-5.7-17.3-6.5-34.8-1.9-52.6
	c5.2-20.4,16.8-36.5,32.3-50.2c10.3-9.2,22.2-15.7,35-20.7c4.9-1.9,9.9-3.8,14.9-5.4c-5.2,2.8-10.6,5.2-15.5,8.4
	C151,70,142.4,80.6,135.9,92.8c-4.4,8.4-8.6,17.1-11.6,26c-3.2,9.4-6.2,19-6.9,29.1c-0.4,5.5-1.2,11-1.8,16.4
	c-0.1,1.1,0,2.1,0.4,3.4c5.8-37.4,26.7-64,58.7-82.6c-7.4,6.1-13.5,13.4-18.1,21.9c-4.5,8.3-7.9,17-10,26.1c-1.2,5-2.9,10-3.4,15.1
	c-1.2,11.8-2.4,23.6-0.7,35.5c0.4,2.6,0.8,5.2,1.8,7.8c-1.3-15,2.6-28.5,11-40.6c5.2-7.6,12.1-13.5,19.4-19.1
	c-1.6,2.5-3.2,4.9-4.7,7.5c-4.4,7.6-5.8,16.1-6.9,24.6c-0.6,4.9-1.2,10.1-0.6,14.9c0.9,7.1,2.9,14.1,4.6,21.1c0.7,2.8,2,5.4,2.9,8.2
	c0.2,0.5-0.2,1.2-0.5,1.8c-1.3,2.6-3.1,5-4,7.7c-1.4,4.2-2.5,8.6-3.3,12.9c-1.3,7.2-1.4,14.5,0.2,21.6c1.7,7.5,4.1,14.8,8.5,21.2
	c2.4,3.4,5,6.7,7.2,10.2c1,1.5,1.5,1.1,2.2,0.1c2.2-2.8,4.6-5.5,6.6-8.4c0.4-0.5,0.2-2.1-0.3-2.6c-5.1-5.1-7.9-11.4-10-18.1
	c-2.9-8.9-2.6-17.8-0.4-26.8c3.3-13.9,11.6-24.6,22.1-33.8c2.1-1.9,4.4-3.5,6.5-5.2c1.9-1.5,1.8-2.2-0.5-3.1
	c-5.1-2.1-10.4-2.4-15.8-1c-1.2,0.3-2.3,0.6-4.3,1c3.8-4.1,7.6-6.8,11.7-8.9c1.4-0.7,2.9-1.3,4.3-2c0.4-0.2,0.7-0.6,1-0.9
	c-0.4-0.3-0.6-0.7-1.1-0.8c-1.7-0.8-3.4-1.5-5.1-2.2c0.1-0.2,0.1-0.5,0.2-0.7h9.6c-2.6-1.9-4.8-3.5-7.5-5.5c1-0.2,1.4-0.4,1.5-0.3
	c4.9,3,10.4,3.2,15.9,3.5c3.1,0.2,6.2,0.6,9.1,1.5c1.5,0.5,2.5,2.4,3.8,3.6c1,0.9,2,2,3.2,2.5c3.7,1.4,6.6,3.5,8.9,6.7
	c0.3,0.4,0.3,0.9,0.4,1.3c-0.4,0-0.9,0.2-1.3,0.1c-10.1-2-19.8,1.4-23.8,11.7c-1.8,4.6-2,9.4-1.5,14.3c0.5,4.7,1.2,9.4,1.4,14.1
	c0.5,10.7-2.3,20.8-6.6,30.5c-5.8,12.9-14.9,23.1-26.1,31.6c-8.6,6.6-18,11.8-28.4,14.8c-16,4.6-31.8,3.5-47.4-2.2
	c-13.2-4.9-24.5-12.5-34.2-22.5c-6.3-6.5-11.8-13.8-17.7-20.7c-1.3-1.5-2.6-3-3.8-4.6c-0.5-0.6-0.6-1.4-0.7-2.2
	c10.2,11.9,23.4,19.3,37.7,25c14.3,5.8,29.1,9,44.5,9c0.1-0.3,0.1-0.6,0.2-0.9c-1.6-0.3-3.1-0.7-4.7-0.8c-7-0.2-13.2-3.2-19.6-5.6
	c-5.6-2.2-11-5-16.1-8.2c-7.9-5-14.7-11.3-20.9-18.3c-5.7-6.4-10.6-13.5-14.2-21.2c-3.5-7.5-6.6-15.3-7.8-23.5
	c-1.5-10.2-2.1-20.6-3.1-30.8c0-0.5,0.1-1.1,0.3-1.7c0.6,2.8,1,5.8,2,8.5c4.9,13.6,12.5,25.5,22.4,36.1c7.5,8.1,15.8,15.2,25.1,21.3
	c4.7,3.1,9.5,5.9,14.4,8.8c0.9,0.5,2,0.7,3,1.1c0.1-0.2,0.2-0.4,0.3-0.6c-2.5-1.9-5.1-3.7-7.6-5.6c-8.8-7-16.3-15.2-22.8-24.3
	c-6.2-8.7-10.5-18.3-13.2-28.6c-3.7-14.6-3.6-29.2-0.5-43.9c2.6-12,6.4-23.4,12.5-34.1c3.9-6.8,8.1-13.5,12.2-20.2
	C94.8,88.7,95.6,88.4,96.2,88L96.2,88L96.2,88z M99.9,190.6c0.1,0.1,0.1,0.2,0.2,0.3c0.1-0.1,0.2-0.1,0.2-0.2c0-0.1-0.1-0.2-0.2-0.3
	L99.9,190.6L99.9,190.6z M224.3,91.2c26.1,19.6,44.2,44.4,48.6,77.9c0.3,0,0.6-0.1,0.9-0.1c0-1.2,0.2-2.5,0-3.7
	c-1.4-9.7-2.9-19.3-4.4-29c-1.5-9.7-4.5-18.9-8.3-27.9c-4.1-10-9.2-19.4-15.8-28.1c-4.8-6.3-10.3-11.7-16.6-16.2
	c-4.7-3.3-10.1-5.8-15.9-9c2.2,0.6,3.8,0.8,5.2,1.5c10.9,5,21.8,9.8,31.6,16.8c15.6,11.2,27.6,25.4,35.7,42.8
	c1.9,4,3.1,8.3,4.1,12.7c1.5,6.1,2.9,12.2,3.7,18.4c1,7,0,14-1,21.1c-0.9,6.1-2.5,12-4.3,17.8c-0.6,1.9-1.5,3.8-2.3,5.7
	c-0.2,0.5-0.2,1.2-0.3,1.8l0.7,0.3c0.9-1.7,2-3.3,2.6-5.1c2.8-7.4,5.7-14.7,8.1-22.2c5.1-15.9,6.3-32.2,3.9-48.8
	c-1.5-10.3-5.2-19.7-10.2-28.7c-0.6-1-1.3-2-1.9-2.9c0-0.1,0-0.1,0.1-0.1c0,0-0.1,0.1,0,0.1c2.3,3.1,4.9,6,6.9,9.2
	c2.8,4.3,5.4,8.8,7.6,13.4c6.6,13.3,12.4,26.9,13.8,41.9c0.7,7.9,1.1,15.9,0.6,23.8c-0.6,9.7-3.2,19.1-7.4,28.1
	c-5.9,12.6-14.3,23.1-24.6,32.2c-4,3.5-8.4,6.5-12.6,9.7c-0.5,0.4-0.8,0.9-1.2,1.3c0.1,0.2,0.2,0.4,0.4,0.6c1.6-0.7,3.3-1.3,4.9-2.1
	c9.6-4.8,18.5-10.8,26.9-17.5c6.4-5.1,12.2-10.9,17.4-17.4c5.3-6.6,10-13.6,13.1-21.4c1.9-4.8,2.9-10,4.2-15.1
	c0.2-0.7,0.5-1.3,1.1-2.1c0.1,1.2,0.3,2.4,0.2,3.6c-0.9,7.6-1.7,15.3-2.8,22.9c-0.6,4.6-1.3,9.2-2.6,13.7c-1.6,5.2-3.6,10.3-6,15.2
	c-2.9,5.8-6,11.6-9.9,16.7c-4.1,5.4-9,10.1-13.8,14.9c-5.2,5.1-11.3,9-17.7,12.5c-8.5,4.6-17.3,8-26.8,9.9c-2.1,0.4-4.1,0.7-6.6,1.2
	c5.5,2.5,30.6-1.8,44.8-8.3c14.8-6.8,25-11.7,37.6-26.3c-2.5,3.5-4.7,7.2-7.4,10.5c-5.1,6.1-10.4,12.2-15.9,18
	c-8.8,9.1-19,16.3-30.7,21.2c-12.7,5.4-25.9,7.6-39.8,6c-7.3-0.8-14-3.1-20.5-6c-1.8-0.8-2.9-0.7-3.8,1.1c-0.4,0.9-1.1,1.6-1.6,2.4
	c-2.7,3.7-2.2,5,2.1,6.4c3.1,1,6,2.4,9.1,3.2c3.9,1,7.9,2.2,11.9,2.4c7.5,0.4,15.2,0.7,22.7-0.1c5.5-0.5,11-2.4,16.2-4.4
	c6-2.3,11.7-5.4,17.5-8.2c0.4-0.2,0.8-0.3,1.5-0.1c-1.6,1.2-3.2,2.5-4.9,3.4c-8.7,4.7-17.3,9.7-26.2,13.9c-7.6,3.6-15.8,5.8-24,7.6
	c-10.8,2.4-21.5,2.4-32.4,1.4c-4-0.4-7.9-1.8-11.7-3.1c-3.7-1.2-6.9-1.9-10.9-0.4c-12.4,4.5-25.3,4.9-38.3,3.3
	c-11.8-1.4-22.8-5.2-33.4-10.3c-6.5-3.1-12.9-6.6-19.2-10.1c-2.8-1.6-5.4-3.6-7.8-5.9c1.6,0.8,3.2,1.5,4.7,2.4
	c6,3.5,12.3,6.1,19.1,8c12.1,3.3,24.3,4.4,36.7,2.8c7.4-1,14.7-2.5,21.9-5c8.7-3.1,16.7-7.2,24.1-12.5c9.6-7,17.6-15.5,23.8-25.8
	c3.8-6.3,7.1-12.7,9.3-19.7c2.6-8.1,4.5-16.5,3.6-25c-0.6-6.2,0.5-11.6,2.5-17.4c2.1-6.1,2.8-12.6,4-19c0.2-1.3,0.5-1.9,1.9-1.7
	c2,0.2,4,0.3,6,0.5c1.1,0.1,1.7-0.2,0.9-1.2c-2.1-2.6-4.2-5.3-6.6-7.7c-1.3-1.3-2.2-2.4-2.5-4.3c-0.6-4.5-1.6-8.9-2.6-13.4
	c-0.7-3-1.2-6.1-2.3-8.9c-1.4-3.6-3.4-7-4.8-10.8c2.3,2.5,4.9,4.7,6.8,7.4c3.8,5.4,7.5,10.9,10.6,16.7c1.7,3.2,2.2,7,3.2,10.6
	c1.8,6.5,2.3,13,1.1,19.7c-0.1,0.6,0.3,1.4,0.5,2.1c0.1-0.6,0.3-1.1,0.4-1.7c1-6.9,2.4-13.7,2.9-20.6c0.8-11.7-0.7-23.3-3.4-34.8
	c-2-8.5-4.9-16.6-8.7-24.4C236.6,106.4,231.4,98.1,224.3,91.2L224.3,91.2z M271,245.7c0,0.1-0.2,0.1-0.1,0.2c0,0.1,0.1,0.2,0.1,0.3
	c0-0.1,0.2-0.1,0.1-0.2C271.1,245.9,271.1,245.8,271,245.7z M96.2,88.1c-0.1-0.2-0.1-0.5-0.1-0.7c0.1,0.1,0.1,0.1,0.2,0.2
	C96.2,87.7,96.2,87.9,96.2,88.1L96.2,88.1L96.2,88.1z M193.1,386.1C86.6,386.1,0,299.5,0,193.1S86.6,0,193.1,0
	c106.5,0,193.1,86.6,193.1,193.1S299.5,386.1,193.1,386.1z M193.1,20C97.6,20,20,97.6,20,193.1s77.6,173.1,173.1,173.1
	s173.1-77.6,173.1-173.1S288.5,20,193.1,20z"/>
</svg>
