<svg width="40" height="40" viewBox="0 0 40 40" fill="none" xmlns="http://www.w3.org/2000/svg">
<g clip-path="url(#clip0_2152_13765)">
<path fill-rule="evenodd" clip-rule="evenodd" d="M40 20C40 31.0457 31.0457 40 20 40C8.9543 40 0 31.0457 0 20C0 8.9543 8.9543 0 20 0C31.0457 0 40 8.9543 40 20ZM26.911 15.427C26.4062 15.1386 25.7573 15.1386 25.1804 15.427L21.1424 17.8065L18.4024 19.3208L14.4365 21.7003C13.9318 21.9887 13.2828 21.9887 12.7059 21.7003L9.60534 19.8255C9.10059 19.5371 8.74006 18.9602 8.74006 18.3113V14.7059C8.74006 14.1291 9.02849 13.5522 9.60534 13.1917L12.7059 11.389C13.2107 11.1006 13.8596 11.1006 14.4365 11.389L17.5371 13.2638C18.0418 13.5522 18.4024 14.1291 18.4024 14.778V17.1576L21.1424 15.5712V13.1196C21.1424 12.5427 20.854 11.9659 20.2772 11.6053L14.5086 8.21632C14.0039 7.92789 13.3549 7.92789 12.778 8.21632L6.86528 11.6774C6.28843 11.9659 6 12.5427 6 13.1196V19.8976C6 20.4745 6.28843 21.0513 6.86528 21.4119L12.7059 24.8009C13.2107 25.0893 13.8596 25.0893 14.4365 24.8009L18.4024 22.4935L21.1424 20.9071L25.1083 18.5997C25.6131 18.3113 26.262 18.3113 26.8389 18.5997L29.9395 20.4024C30.4442 20.6908 30.8047 21.2677 30.8047 21.9166V25.522C30.8047 26.0988 30.5163 26.6757 29.9395 27.0362L26.911 28.8389C26.4062 29.1273 25.7573 29.1273 25.1804 28.8389L22.0798 27.0362C21.5751 26.7478 21.2145 26.1709 21.2145 25.522V23.2145L18.4745 24.8009V27.1804C18.4745 27.7573 18.7629 28.3341 19.3398 28.6947L25.1804 32.0837C25.6852 32.3721 26.3341 32.3721 26.911 32.0837L32.7516 28.6947C33.2564 28.4062 33.6169 27.8294 33.6169 27.1804V20.3303C33.6169 19.7534 33.3285 19.1766 32.7516 18.816L26.911 15.427Z" fill="#0A0909"/>
</g>
<defs>
<clipPath id="clip0_2152_13765">
<rect width="40" height="40" fill="white"/>
</clipPath>
</defs>
</svg>
